<svg width="74" height="26" viewBox="0 0 74 26" fill="none" xmlns="http://www.w3.org/2000/svg">
<path fill-rule="evenodd" clip-rule="evenodd" d="M58.7524 0.56982L51.9454 7.35337C51.5801 7.71874 51.3745 8.21327 51.3737 8.72908V24.0518C51.3744 24.5682 51.5806 25.0634 51.947 25.4286C52.3135 25.7938 52.8104 25.9993 53.3286 26H65.2381C65.4951 25.9999 65.7496 25.9492 65.9869 25.851C66.2242 25.7527 66.4398 25.6088 66.6213 25.4275L73.4283 18.6439C73.7936 18.2786 73.9992 17.784 74 17.2682V1.94824C74.0004 1.69229 73.9501 1.43879 73.852 1.20226C73.7538 0.965726 73.6099 0.750812 73.4283 0.56983C73.2466 0.388849 73.031 0.245357 72.7936 0.147575C72.5563 0.0497935 72.3019 -0.000355323 72.0451 1.89502e-06H60.1356C59.6171 0.000464517 59.1199 0.205309 58.7524 0.56982ZM70.2644 16.7255L67.9555 19.0238C67.6496 19.3275 67.2355 19.4983 66.8037 19.4986H62.1369C62.0401 19.4991 61.9454 19.4709 61.8649 19.4175C61.7843 19.3642 61.7214 19.2882 61.6844 19.1991C61.6473 19.1101 61.6376 19.0121 61.6566 18.9175C61.6756 18.823 61.7224 18.7363 61.7911 18.6683L65.0148 15.4665C65.0835 15.3986 65.1303 15.3118 65.1493 15.2173C65.1683 15.1228 65.1586 15.0247 65.1215 14.9357C65.0845 14.8467 65.0216 14.7706 64.941 14.7173C64.8605 14.664 64.7658 14.6357 64.669 14.6362H60.141C59.9244 14.6362 59.7166 14.5504 59.5635 14.3978C59.4103 14.2451 59.3242 14.0381 59.3242 13.8222V4.07013C59.3242 3.85424 59.4103 3.64719 59.5635 3.49453C59.7166 3.34187 59.9244 3.25611 60.141 3.25611H69.9268C70.1434 3.25611 70.3512 3.34187 70.5043 3.49453C70.6575 3.64719 70.7436 3.85424 70.7436 4.07013V15.5778C70.7425 16.0085 70.5702 16.4212 70.2644 16.7255Z" fill="#4C9F87"/>
<path d="M34.3153 1.64975H31.0589C30.6092 1.64975 30.2448 2.01299 30.2448 2.46106V5.70631C30.2448 6.15439 30.6092 6.51763 31.0589 6.51763H34.3153C34.7649 6.51763 35.1294 6.15439 35.1294 5.70631V2.46106C35.1294 2.01299 34.7649 1.64975 34.3153 1.64975Z" fill="#333333"/>
<path d="M14.7766 1.64975H11.5202C11.0705 1.64975 10.7061 2.01299 10.7061 2.46106V18.6873C10.7061 19.1354 11.0705 19.4986 11.5202 19.4986H14.7766C15.2263 19.4986 15.5907 19.1354 15.5907 18.6873V2.46106C15.5907 2.01299 15.2263 1.64975 14.7766 1.64975Z" fill="#333333"/>
<path fill-rule="evenodd" clip-rule="evenodd" d="M47.6761 21.5961L45.3753 23.8781C45.0699 24.1828 44.6558 24.3546 44.2236 24.3557H39.5649C39.4694 24.3554 39.3761 24.3274 39.2964 24.2751C39.2167 24.2228 39.1541 24.1484 39.1162 24.0611C39.0783 23.9738 39.0668 23.8773 39.0832 23.7836C39.0995 23.6899 39.143 23.603 39.2082 23.5335L42.4238 20.3289C42.4925 20.261 42.5393 20.1743 42.5583 20.0797C42.5773 19.9852 42.5676 19.8872 42.5305 19.7982C42.4934 19.7091 42.4306 19.6331 42.35 19.5798C42.2694 19.5264 42.1748 19.4982 42.078 19.4986H37.5745C37.3579 19.4986 37.1501 19.4129 36.9969 19.2602C36.8437 19.1076 36.7577 18.9005 36.7577 18.6846V8.95429C36.7577 8.73839 36.8437 8.53134 36.9969 8.37868C37.1501 8.22602 37.3579 8.14026 37.5745 8.14026H47.3412C47.5578 8.14026 47.7656 8.22602 47.9188 8.37868C48.072 8.53134 48.158 8.73839 48.158 8.95429V20.4483C48.1562 20.8794 47.9829 21.2922 47.6761 21.5961Z" fill="#333333"/>
<path fill-rule="evenodd" clip-rule="evenodd" d="M8.60136 21.5961L6.3006 23.8781C5.99519 24.1828 5.58105 24.3546 5.14886 24.3557H0.490168C0.395639 24.3534 0.303792 24.3239 0.225702 24.2708C0.147612 24.2176 0.0866135 24.1431 0.0500615 24.0562C0.0135096 23.9693 0.00296498 23.8737 0.0196992 23.781C0.0364334 23.6882 0.0797319 23.6023 0.144374 23.5335L3.83648 19.8541C4.06591 19.6262 4.19518 19.3168 4.19589 18.9939V8.95429C4.19589 8.73839 4.28195 8.53134 4.43513 8.37868C4.58832 8.22602 4.79608 8.14026 5.01272 8.14026H8.28007C8.49671 8.14026 8.70448 8.22602 8.85766 8.37868C9.01085 8.53134 9.09691 8.73839 9.09691 8.95429V20.4483C9.09423 20.6627 9.04907 20.8745 8.96403 21.0715C8.87899 21.2685 8.75574 21.4467 8.60136 21.5961Z" fill="#333333"/>
<path fill-rule="evenodd" clip-rule="evenodd" d="M30.2447 13.8194V8.95428C30.2447 8.73839 30.3308 8.53134 30.484 8.37868C30.6372 8.22602 30.8449 8.14026 31.0616 8.14026H34.3289C34.5456 8.14026 34.7533 8.22602 34.9065 8.37868C35.0597 8.53134 35.1458 8.73839 35.1458 8.95428V18.6873C35.1458 18.9032 35.0597 19.1103 34.9065 19.2629C34.7533 19.4156 34.5456 19.5014 34.3289 19.5014H18.033C17.8164 19.5014 17.6086 19.4156 17.4554 19.2629C17.3022 19.1103 17.2162 18.9032 17.2162 18.6873V15.4312C17.2162 15.2153 17.3022 15.0083 17.4554 14.8556C17.6086 14.703 17.8164 14.6172 18.033 14.6172H22.9177C23.1344 14.6172 23.3421 14.5314 23.4953 14.3788C23.6485 14.2261 23.7345 14.0191 23.7345 13.8032C23.7345 13.5873 23.6485 13.3802 23.4953 13.2276C23.3421 13.0749 23.1344 12.9891 22.9177 12.9891H18.033C17.8164 12.9891 17.6086 12.9034 17.4554 12.7507C17.3022 12.5981 17.2162 12.391 17.2162 12.1751V8.95428C17.2162 8.73839 17.3022 8.53134 17.4554 8.37868C17.6086 8.22602 17.8164 8.14026 18.033 8.14026H27.8024C28.019 8.14026 28.2268 8.22602 28.38 8.37868C28.5332 8.53134 28.6192 8.73839 28.6192 8.95428V13.8194C28.6192 14.0353 28.7053 14.2424 28.8585 14.3951C29.0117 14.5477 29.2194 14.6335 29.4361 14.6335C29.6513 14.6313 29.857 14.5446 30.0084 14.3922C30.1598 14.2398 30.2448 14.0339 30.2447 13.8194Z" fill="#333333"/>
<path fill-rule="evenodd" clip-rule="evenodd" d="M70.2644 16.7255L67.9555 19.0238C67.6496 19.3275 67.2355 19.4983 66.8037 19.4986H62.1369C62.0401 19.4991 61.9454 19.4709 61.8649 19.4175C61.7843 19.3642 61.7214 19.2882 61.6844 19.1991C61.6473 19.1101 61.6376 19.0121 61.6566 18.9175C61.6756 18.823 61.7224 18.7363 61.7911 18.6683L65.0148 15.4665C65.0835 15.3986 65.1303 15.3118 65.1493 15.2173C65.1683 15.1228 65.1586 15.0247 65.1215 14.9357C65.0845 14.8467 65.0216 14.7706 64.941 14.7173C64.8605 14.664 64.7658 14.6357 64.669 14.6362H60.1411C59.9244 14.6362 59.7167 14.5504 59.5635 14.3978C59.4103 14.2451 59.3242 14.0381 59.3242 13.8222V4.07013C59.3242 3.85424 59.4103 3.64719 59.5635 3.49453C59.7167 3.34187 59.9244 3.2561 60.1411 3.2561H69.9268C70.1434 3.2561 70.3512 3.34187 70.5043 3.49453C70.6575 3.64719 70.7436 3.85424 70.7436 4.07013V15.5777C70.7425 16.0084 70.5702 16.4212 70.2644 16.7255Z" fill="white"/>
</svg>
