<svg width="50" height="50" viewBox="0 0 50 50" fill="none" xmlns="http://www.w3.org/2000/svg">
<path fill-rule="evenodd" clip-rule="evenodd" d="M17.1817 1.70712L4.20948 14.5893C3.51637 15.2828 3.12668 16.2197 3.125 17.1967L3.125 46.3002C3.125 47.2815 3.51752 48.2225 4.21621 48.9164C4.91491 49.6102 5.86253 50 6.85063 50H29.5469C30.536 49.9989 31.4841 49.6078 32.1829 48.9127L45.1551 36.0305C45.5016 35.6879 45.7766 35.2808 45.9644 34.8325C46.1523 34.3842 46.2493 33.9035 46.25 33.418V4.32479C46.25 3.83806 46.1533 3.35611 45.9654 2.90656C45.7775 2.45701 45.5022 2.04869 45.1551 1.705C44.8081 1.36131 44.3961 1.089 43.9429 0.903679C43.4897 0.718356 43.0041 0.623659 42.514 0.625014H19.8125C18.8261 0.626692 17.8804 1.01568 17.1817 1.70712ZM39.1153 32.3874L34.7202 36.7519C34.1374 37.3288 33.3482 37.653 32.5253 37.6537H23.6264C23.4425 37.6535 23.2627 37.5992 23.11 37.4975C22.9572 37.3958 22.8383 37.2514 22.7683 37.0825C22.6982 36.9136 22.6803 36.7279 22.7166 36.5489C22.753 36.3699 22.8421 36.2056 22.9726 36.0769L29.111 29.9965C29.2415 29.8678 29.3306 29.7035 29.367 29.5245C29.4033 29.3455 29.3854 29.1597 29.3154 28.9909C29.2453 28.822 29.1264 28.6776 28.9736 28.5759C28.8209 28.4742 28.6411 28.4198 28.4572 28.4197H19.8229C19.41 28.4197 19.0141 28.2568 18.7222 27.9669C18.4302 27.677 18.2662 27.2838 18.2662 26.8738V8.35435C18.2662 7.94436 18.4302 7.55116 18.7222 7.26126C19.0141 6.97135 19.41 6.80848 19.8229 6.80848H38.477C38.8899 6.80848 39.2858 6.97135 39.5778 7.26126C39.8697 7.55116 40.0337 7.94436 40.0337 8.35435V30.2078C40.0302 31.0264 39.6999 31.8103 39.1153 32.3874Z" fill="#4C9F87"/>
<path fill-rule="evenodd" clip-rule="evenodd" d="M39.077 32.4771L34.6603 36.8989C34.0746 37.4833 33.2815 37.8118 32.4546 37.8125H23.5116C23.3268 37.8124 23.1462 37.7573 22.9927 37.6543C22.8392 37.5512 22.7196 37.4049 22.6493 37.2338C22.5789 37.0627 22.5608 36.8746 22.5974 36.6932C22.634 36.5118 22.7235 36.3454 22.8546 36.215L29.0234 30.0548C29.1545 29.9244 29.244 29.758 29.2806 29.5766C29.3171 29.3953 29.2991 29.2071 29.2287 29.036C29.1583 28.8649 29.0388 28.7186 28.8853 28.6156C28.7318 28.5126 28.5512 28.4575 28.3664 28.4573H19.6894C19.2745 28.4573 18.8766 28.2923 18.5832 27.9986C18.2898 27.7049 18.125 27.3066 18.125 26.8912V8.12865C18.125 7.71328 18.2898 7.31493 18.5832 7.02122C18.8766 6.7275 19.2745 6.5625 19.6894 6.5625H38.4356C38.8505 6.5625 39.2484 6.7275 39.5418 7.02122C39.8352 7.31493 40 7.71328 40 8.12865V30.2689C39.9965 31.0983 39.6646 31.8924 39.077 32.4771Z" fill="white"/>
</svg>
